<svg width="35" height="35" viewBox="0 0 35 35" fill="none" xmlns="http://www.w3.org/2000/svg">
<path d="M13.8542 1.45833H21.1458C27.9919 1.45833 33.5417 7.00814 33.5417 13.8542V21.1458C33.5417 27.9919 27.9919 33.5417 21.1458 33.5417H13.8542C7.00814 33.5417 1.45833 27.9919 1.45833 21.1458V13.8542C1.45833 7.00814 7.00814 1.45833 13.8542 1.45833Z" fill="#FF9900"/>
<path d="M13.8542 1.45833H21.1458C27.9919 1.45833 33.5417 7.00814 33.5417 13.8542V21.1458C33.5417 27.9919 27.9919 33.5417 21.1458 33.5417H13.8542C7.00814 33.5417 1.45833 27.9919 1.45833 21.1458V13.8542C1.45833 7.00814 7.00814 1.45833 13.8542 1.45833Z" stroke="white" stroke-width="2.91667"/>
<path d="M13.8542 1.45833H21.1458C27.9919 1.45833 33.5417 7.00814 33.5417 13.8542V21.1458C33.5417 27.9919 27.9919 33.5417 21.1458 33.5417H13.8542C7.00814 33.5417 1.45833 27.9919 1.45833 21.1458V13.8542C1.45833 7.00814 7.00814 1.45833 13.8542 1.45833Z" stroke="#FF9900" stroke-width="2.91667"/>
<path d="M25.7657 12.2393C25.4533 11.9202 24.9468 11.9202 24.6343 12.2393L15.0498 22.0277L11.3657 18.2653C11.0533 17.9462 10.5468 17.9462 10.2343 18.2653C9.92189 18.5843 9.92189 19.1016 10.2343 19.4207L14.4841 23.7608C14.7964 24.0798 15.3033 24.0796 15.6155 23.7608L25.7657 13.3947C26.0781 13.0757 26.0781 12.5584 25.7657 12.2393Z" fill="white"/>
</svg>
